# xmcd
#
# Track frame offsets:
#	150
#	17376
#	31579
#	49743
#	67373
#	82186
#	93829
#	110844
#	126390
#	142517
#	159174
#	176981
#	191458
#	206892
#	223786
#	252905
#
# Disc length: 3380 seconds
#
# Revision: 1
# Processed by: cddbd v1.5.1PL0 Copyright (c) Steve Scherf et al.
# Submitted via: audiograbber 1.83.01
#
DISCID=e30d3210
DTITLE=Top Tunes - TT-253
DYEAR=1900
DGENRE=karaoke
TTITLE0=Wright, Chely - Back Of The Bottom Drawer
TTITLE1=Blue County - Good Little Girls
TTITLE2=Nichols, Joe - If Nobody Believed In You
TTITLE3=Lonestar - Let's Be Us Again
TTITLE4=Murphy, David Lee - Loco
TTITLE5=Morgan, Craig - Look At Us
TTITLE6=Proctor, Rachel - Me And Emily
TTITLE7=Holy, Steve - Put Your Best Dress On
TTITLE8=Wilson, Gretchen - Redneck Woman
TTITLE9=Big and Rich - Save A Horse(Ride A Cowboy)
TTITLE10=Evans, Sara - Suds In The Bucket
TTITLE11=Diffie, Joe - Tougher Than Nails
TTITLE12=Turner, Josh - What It Ain't
TTITLE13=Shelton, Blake - When Somebody Knows You That Well
TTITLE14=Keith, Toby - Whiskey Girl
TTITLE15=d - Data Track
EXTD=
EXTT0=
EXTT1=
EXTT2=
EXTT3=
EXTT4=
EXTT5=
EXTT6=
EXTT7=
EXTT8=
EXTT9=
EXTT10=
EXTT11=
EXTT12=
EXTT13=
EXTT14=
EXTT15=
PLAYORDER=
